<?xml version="1.0" encoding="utf-8"?>
<!-- Generator: Adobe Illustrator 17.0.0, SVG Export Plug-In . SVG Version: 6.00 Build 0)  -->
<!DOCTYPE svg PUBLIC "-//W3C//DTD SVG 1.1//EN" "http://www.w3.org/Graphics/SVG/1.1/DTD/svg11.dtd">
<svg version="1.1" id="Calque_1" xmlns="http://www.w3.org/2000/svg" xmlns:xlink="http://www.w3.org/1999/xlink" x="0px" y="0px"
	 width="700.955px" height="354.774px" viewBox="0 0 700.955 354.774" enable-background="new 0 0 700.955 354.774"
	 xml:space="preserve">
<g>
	<g>
		<path fill="none" stroke="#000000" stroke-miterlimit="10" d="M413.748,94.157v4.21l3-1.21l-2.18,3l-6.04,8.31l-16.44,22.63
			l-16.44,22.62l-16.43,22.62l26.59-8.64l10.3-3.35l3-0.97l3-0.97v-2.03h-2.2l16.04-60.22h3.8v-6H413.748z M435.998,199.267v0.08
			l-33.89-33.05v-5.92h-2.2l16.04-60.22h3.8v-6h-6v4.21l3-1.21l-2.18,3l-6.04,8.31l-16.44,22.63l-16.44,22.62l-16.43,22.62
			l16.44,22.62l16.43,22.63l14.26,19.62l4.36,6h0.82v-6h-0.82l26.11-35.94h5.18v-6H435.998z M435.998,199.267v0.08l-33.89-33.05
			v-5.92h-2.2l16.04-60.22h3.8v-6h-6v4.21l3-1.21l-2.18,3l-6.04,8.31l-16.44,22.63l-16.44,22.62l-16.43,22.62v83.9l-2.55-3h-0.45v6
			h6v-3.98l43.31-14.07v2.02h6v-6h-0.82l26.11-35.94h5.18v-6H435.998z M326.337,221.587l-2.18,3h4.73L326.337,221.587z
			 M435.998,199.267v0.08l-33.89-33.05v-5.92h-2.2l16.04-60.22h3.8v-6h-6v4.21l3-1.21l-2.18,3l-6.04,8.31l-16.44,22.63l-16.44,22.62
			l-16.43,22.62l-26.6,8.64l-26.59,8.64l-26.6,8.65l-10.3,3.34l-3,0.98l0.71-3h-3.71v6h6v-2.25l54.21,13.5v3.75h5.55l27.78,32.65
			h-0.45v6h6v-3.98l43.31-14.07v2.02h6v-6h-0.82l26.11-35.94h5.18v-6H435.998z M278.717,153.417l0.71-2.98v-0.02l0.98-3h-3.98v6
			H278.717z M359.217,36.517c-77.22,0-139.82,62.6-139.82,139.82c0,46.5,22.7,87.7,57.63,113.12c23.07,16.79,51.47,26.7,82.19,26.7
			c30.71,0,59.11-9.9,82.18-26.7c34.93-25.41,57.64-66.61,57.64-113.12C499.038,99.117,436.438,36.517,359.217,36.517z
			 M427.147,263.837h-5.18v3.97l-59.75,19.42v-2.03h-6v0.32l-43.31-38.63v-5.68h-6v1.76l-64.37-26.5v-4.24h-2.46l12.22-67.45h3.54
			v-5.74l42.85-39.14v0.26h6v-3.25l51.53-4.21v2.75h6v-3.3l59.75-6v2.7h3.65l12.73,58.57h-2.35v6h4.32l23.96,54.49h-1.68v6h0.82
			L427.147,263.837z M435.998,199.267v0.08l-33.89-33.05v-5.92h-2.2l16.04-60.22h3.8v-6h-6v4.21l-51.53,20.84v-1.79h-6v2.95
			l-35.09-0.53v-3.05h-6v5.37l-32.7,25.89v-0.63h-6v6h2.29l-11.88,50.17h-3.71v6h6v-2.25l54.21,13.5v3.75h5.55l27.78,32.65h-0.45v6
			h6v-3.98l43.31-14.07v2.02h6v-6h-0.82l26.11-35.94h5.18v-6H435.998z M266.128,206.587l-3,0.97v2.03h6v-2.25L266.128,206.587z
			 M435.998,199.267v0.08l-33.89-33.05v-5.92h-2.2l16.04-60.22h3.8v-6h-6v4.21l3-1.21l-2.18,3l-6.04,8.31l-16.44,22.63l-16.44,22.62
			l-16.43,22.62l-16.44,22.63l-14.26,19.62l-2.18,3l-3-0.75v3.75h5.55l27.78,32.65h-0.45v6h6v-3.98l43.31-14.07v2.02h6v-6h-0.82
			l26.11-35.94h5.18v-6H435.998z M359.217,260.237h-3v3h6v-3.98L359.217,260.237z M435.998,199.267v0.08l-33.89-33.05v-5.92h-2.2
			l16.04-60.22h3.8v-6h-6v4.21l3-1.21l-2.18,3l-6.04,8.31l-16.44,22.63l-16.44,22.62l-16.43,22.62l16.44,22.62l16.43,22.63
			l14.26,19.62l2.18,3l-3,0.98v2.02h6v-6h-0.82l26.11-35.94h5.18v-6H435.998z M435.998,199.267v0.08l-33.89-33.05v-5.92h-2.2
			l16.04-60.22h3.8v-6h-6v4.21l3-1.21l-2.18,3l-6.04,8.31l-16.44,22.63l-16.44,22.62l-16.43,22.62l26.59,8.64l26.6,8.64l23.59,7.67
			l2.99,0.97l0.01,0.01l-2.18,3h5.18v-6H435.998z M413.748,94.157v4.21l3-1.21l-0.8,3h3.8v-6H413.748z"/>
		<g>
			<g>
				<line fill="none" stroke="#000000" stroke-miterlimit="10" x1="359.216" y1="36.521" x2="359.216" y2="43.512"/>
				<line fill="none" stroke="#000000" stroke-miterlimit="10" x1="441.4" y1="63.225" x2="437.29" y2="68.881"/>
				<line fill="none" stroke="#000000" stroke-miterlimit="10" x1="492.192" y1="133.135" x2="485.543" y2="135.295"/>
				<line fill="none" stroke="#000000" stroke-miterlimit="10" x1="492.192" y1="219.548" x2="485.543" y2="217.388"/>
				<line fill="none" stroke="#000000" stroke-miterlimit="10" x1="441.4" y1="289.458" x2="437.29" y2="283.802"/>
				<line fill="none" stroke="#000000" stroke-miterlimit="10" x1="359.216" y1="316.161" x2="359.216" y2="309.17"/>
				<line fill="none" stroke="#000000" stroke-miterlimit="10" x1="277.031" y1="289.458" x2="281.141" y2="283.802"/>
				<line fill="none" stroke="#000000" stroke-miterlimit="10" x1="226.239" y1="219.548" x2="232.888" y2="217.388"/>
				<line fill="none" stroke="#000000" stroke-miterlimit="10" x1="226.239" y1="133.135" x2="232.888" y2="135.295"/>
				<line fill="none" stroke="#000000" stroke-miterlimit="10" x1="277.031" y1="63.225" x2="281.141" y2="68.881"/>
			</g>
		</g>
	</g>
	<g>
		<polyline fill="none" stroke="#000000" stroke-miterlimit="10" points="359.217,36.517 359.217,43.517 359.217,64.487 
			359.217,89.447 359.217,92.447 359.217,95.447 		"/>
		<polyline fill="none" stroke="#000000" stroke-miterlimit="10" points="359.217,117.417 359.217,120.417 359.217,123.417 
			359.217,148.377 359.217,176.337 		"/>
		<g>
			<g>
				<line fill="none" stroke="#000000" stroke-miterlimit="10" x1="355.72" y1="148.377" x2="362.711" y2="148.377"/>
				<line fill="none" stroke="#000000" stroke-miterlimit="10" x1="355.72" y1="120.413" x2="362.711" y2="120.413"/>
				<line fill="none" stroke="#000000" stroke-miterlimit="10" x1="355.72" y1="92.449" x2="362.711" y2="92.449"/>
				<line fill="none" stroke="#000000" stroke-miterlimit="10" x1="355.72" y1="64.485" x2="362.711" y2="64.485"/>
			</g>
		</g>
	</g>
	<g>
		<polyline fill="none" stroke="#000000" stroke-miterlimit="10" points="441.398,63.227 437.288,68.877 427.148,82.847 
			424.967,85.847 424.958,85.847 422.788,88.847 		"/>
		<polyline fill="none" stroke="#000000" stroke-miterlimit="10" points="418.928,94.157 416.747,97.157 414.568,100.157 
			408.527,108.467 392.087,131.097 375.648,153.717 359.217,176.337 		"/>
		<g>
			<g>
				<line fill="none" stroke="#000000" stroke-miterlimit="10" x1="372.824" y1="151.663" x2="378.48" y2="155.773"/>
				<line fill="none" stroke="#000000" stroke-miterlimit="10" x1="389.261" y1="129.04" x2="394.917" y2="133.149"/>
				<line fill="none" stroke="#000000" stroke-miterlimit="10" x1="405.698" y1="106.417" x2="411.354" y2="110.526"/>
				<line fill="none" stroke="#000000" stroke-miterlimit="10" x1="422.135" y1="83.793" x2="427.791" y2="87.903"/>
			</g>
		</g>
	</g>
	<g>
		<polyline fill="none" stroke="#000000" stroke-miterlimit="10" points="492.188,133.137 485.548,135.297 465.598,141.777 
			441.997,149.447 438.997,150.417 435.997,151.397 		"/>
		<polyline fill="none" stroke="#000000" stroke-miterlimit="10" points="402.108,162.407 399.108,163.377 396.108,164.347 
			385.807,167.697 359.217,176.337 		"/>
		<g>
			<g>
				<line fill="none" stroke="#000000" stroke-miterlimit="10" x1="384.731" y1="164.376" x2="386.891" y2="171.024"/>
				<line fill="none" stroke="#000000" stroke-miterlimit="10" x1="411.326" y1="155.734" x2="413.486" y2="162.383"/>
				<line fill="none" stroke="#000000" stroke-miterlimit="10" x1="437.921" y1="147.093" x2="440.082" y2="153.742"/>
				<line fill="none" stroke="#000000" stroke-miterlimit="10" x1="464.517" y1="138.452" x2="466.677" y2="145.1"/>
			</g>
		</g>
	</g>
	<g>
		<polyline fill="none" stroke="#000000" stroke-miterlimit="10" points="492.188,219.547 485.548,217.387 468.598,211.877 
			465.598,210.907 462.598,209.927 		"/>
		<polyline fill="none" stroke="#000000" stroke-miterlimit="10" points="441.997,203.237 438.997,202.267 438.988,202.257 
			435.997,201.287 412.408,193.617 385.807,184.977 359.217,176.337 		"/>
		<g>
			<g>
				<line fill="none" stroke="#000000" stroke-miterlimit="10" x1="386.891" y1="181.658" x2="384.731" y2="188.307"/>
				<line fill="none" stroke="#000000" stroke-miterlimit="10" x1="413.486" y1="190.3" x2="411.326" y2="196.948"/>
				<line fill="none" stroke="#000000" stroke-miterlimit="10" x1="440.082" y1="198.941" x2="437.921" y2="205.59"/>
				<line fill="none" stroke="#000000" stroke-miterlimit="10" x1="466.677" y1="207.582" x2="464.517" y2="214.231"/>
			</g>
		</g>
	</g>
	<g>
		<polyline fill="none" stroke="#000000" stroke-miterlimit="10" points="441.398,289.457 437.288,283.807 427.148,269.837 
			424.967,266.837 424.958,266.837 422.788,263.837 		"/>
		<polyline fill="none" stroke="#000000" stroke-miterlimit="10" points="410.708,247.207 408.527,244.207 406.348,241.207 
			392.087,221.587 375.658,198.957 359.217,176.337 		"/>
		<g>
			<g>
				<line fill="none" stroke="#000000" stroke-miterlimit="10" x1="378.48" y1="196.91" x2="372.824" y2="201.019"/>
				<line fill="none" stroke="#000000" stroke-miterlimit="10" x1="394.917" y1="219.533" x2="389.261" y2="223.643"/>
				<line fill="none" stroke="#000000" stroke-miterlimit="10" x1="411.354" y1="242.157" x2="405.698" y2="246.266"/>
				<line fill="none" stroke="#000000" stroke-miterlimit="10" x1="427.791" y1="264.78" x2="422.135" y2="268.889"/>
			</g>
		</g>
	</g>
	<g>
		<polyline fill="none" stroke="#000000" stroke-miterlimit="10" points="359.217,316.157 359.217,309.167 359.217,291.197 
			359.217,288.197 359.217,285.197 		"/>
		<polyline fill="none" stroke="#000000" stroke-miterlimit="10" points="359.217,263.237 359.217,260.237 359.217,257.237 
			359.217,232.267 359.217,204.307 359.217,176.337 		"/>
		<g>
			<g>
				<line fill="none" stroke="#000000" stroke-miterlimit="10" x1="362.711" y1="204.305" x2="355.72" y2="204.305"/>
				<line fill="none" stroke="#000000" stroke-miterlimit="10" x1="362.711" y1="232.269" x2="355.72" y2="232.269"/>
				<line fill="none" stroke="#000000" stroke-miterlimit="10" x1="362.711" y1="260.233" x2="355.72" y2="260.233"/>
				<line fill="none" stroke="#000000" stroke-miterlimit="10" x1="362.711" y1="288.197" x2="355.72" y2="288.197"/>
			</g>
		</g>
	</g>
	<g>
		<polyline fill="none" stroke="#000000" stroke-miterlimit="10" points="277.027,289.457 281.138,283.807 293.467,266.827 
			307.728,247.207 309.908,244.207 312.087,241.207 		"/>
		<polyline fill="none" stroke="#000000" stroke-miterlimit="10" points="324.158,224.587 326.337,221.587 328.518,218.587 
			342.777,198.967 359.217,176.337 		"/>
		<g>
			<g>
				<line fill="none" stroke="#000000" stroke-miterlimit="10" x1="345.607" y1="201.019" x2="339.951" y2="196.91"/>
				<line fill="none" stroke="#000000" stroke-miterlimit="10" x1="329.17" y1="223.643" x2="323.514" y2="219.533"/>
				<line fill="none" stroke="#000000" stroke-miterlimit="10" x1="312.733" y1="246.266" x2="307.077" y2="242.157"/>
				<line fill="none" stroke="#000000" stroke-miterlimit="10" x1="296.296" y1="268.889" x2="290.64" y2="264.78"/>
			</g>
		</g>
	</g>
	<g>
		<polyline fill="none" stroke="#000000" stroke-miterlimit="10" points="226.238,219.547 232.888,217.387 236.538,216.197 
			239.538,215.227 242.538,214.247 		"/>
		<polyline fill="none" stroke="#000000" stroke-miterlimit="10" points="263.128,207.557 266.128,206.587 269.128,205.607 
			279.428,202.267 306.027,193.617 332.618,184.977 359.217,176.337 		"/>
		<g>
			<g>
				<line fill="none" stroke="#000000" stroke-miterlimit="10" x1="333.7" y1="188.307" x2="331.54" y2="181.658"/>
				<line fill="none" stroke="#000000" stroke-miterlimit="10" x1="307.105" y1="196.948" x2="304.945" y2="190.3"/>
				<line fill="none" stroke="#000000" stroke-miterlimit="10" x1="280.51" y1="205.59" x2="278.349" y2="198.941"/>
				<line fill="none" stroke="#000000" stroke-miterlimit="10" x1="253.914" y1="214.231" x2="251.754" y2="207.582"/>
			</g>
		</g>
	</g>
	<g>
		<polyline fill="none" stroke="#000000" stroke-miterlimit="10" points="226.238,133.137 232.888,135.297 249.838,140.807 
			252.838,141.777 255.838,142.757 		"/>
		<polyline fill="none" stroke="#000000" stroke-miterlimit="10" points="276.428,149.437 279.428,150.417 282.428,151.387 
			306.027,159.057 332.618,167.697 359.217,176.337 		"/>
		<g>
			<g>
				<line fill="none" stroke="#000000" stroke-miterlimit="10" x1="331.54" y1="171.024" x2="333.7" y2="164.376"/>
				<line fill="none" stroke="#000000" stroke-miterlimit="10" x1="304.945" y1="162.383" x2="307.105" y2="155.734"/>
				<line fill="none" stroke="#000000" stroke-miterlimit="10" x1="278.349" y1="153.742" x2="280.51" y2="147.093"/>
				<line fill="none" stroke="#000000" stroke-miterlimit="10" x1="251.754" y1="145.1" x2="253.914" y2="138.452"/>
			</g>
		</g>
	</g>
	<g>
		<polyline fill="none" stroke="#000000" stroke-miterlimit="10" points="277.027,63.227 281.138,68.877 293.467,85.847 
			299.497,94.157 301.688,97.157 303.858,100.157 		"/>
		<polyline fill="none" stroke="#000000" stroke-miterlimit="10" points="315.948,116.787 318.128,119.787 320.307,122.787 
			326.337,131.097 342.777,153.717 359.217,176.337 		"/>
		<g>
			<g>
				<line fill="none" stroke="#000000" stroke-miterlimit="10" x1="339.951" y1="155.773" x2="345.607" y2="151.663"/>
				<line fill="none" stroke="#000000" stroke-miterlimit="10" x1="323.514" y1="133.149" x2="329.17" y2="129.04"/>
				<line fill="none" stroke="#000000" stroke-miterlimit="10" x1="307.077" y1="110.526" x2="312.733" y2="106.417"/>
				<line fill="none" stroke="#000000" stroke-miterlimit="10" x1="290.64" y1="87.903" x2="296.296" y2="83.793"/>
			</g>
		</g>
	</g>
	<g>
		<g>
			<g>
				<polygon fill="#AAD5F7" stroke="#DFDFDF" stroke-width="2" stroke-linecap="round" stroke-miterlimit="10" points="
					422.788,88.847 418.928,94.157 413.748,94.157 413.748,98.367 362.217,119.207 362.217,117.417 359.217,117.417 359.217,95.447 
					362.217,95.447 362.217,92.147 421.967,86.147 421.967,88.847 				"/>
				
					<line fill="none" stroke="#DFDFDF" stroke-width="2" stroke-linecap="round" stroke-miterlimit="10" x1="362.217" y1="92.147" x2="359.217" y2="92.447"/>
				<polyline fill="none" stroke="#DFDFDF" stroke-width="2" stroke-linecap="round" stroke-miterlimit="10" points="
					421.967,86.147 424.958,85.847 424.967,85.847 				"/>
				<polygon fill="#AAD5F7" stroke="#DFDFDF" stroke-width="2" stroke-linecap="round" stroke-miterlimit="10" points="
					438.348,147.417 435.998,147.417 435.998,151.397 412.408,159.057 402.108,162.407 402.108,160.377 399.908,160.377 
					415.947,100.157 419.748,100.157 419.748,94.157 418.928,94.157 422.788,88.847 425.618,88.847 				"/>
				<polyline fill="none" stroke="#DFDFDF" stroke-width="2" stroke-linecap="round" stroke-miterlimit="10" points="
					424.967,85.847 424.967,85.857 425.618,88.847 				"/>
				
					<line fill="none" stroke="#DFDFDF" stroke-width="2" stroke-linecap="round" stroke-miterlimit="10" x1="438.997" y1="150.417" x2="438.348" y2="147.417"/>
				<polygon fill="#AAD5F7" stroke="#DFDFDF" stroke-width="2" stroke-linecap="round" stroke-miterlimit="10" points="
					464.277,207.907 462.598,207.907 462.598,209.927 441.998,203.237 441.998,199.267 435.998,199.267 435.998,199.347 
					402.108,166.297 402.108,162.407 412.408,159.057 435.998,151.397 435.998,153.417 440.318,153.417 				"/>
				
					<line fill="none" stroke="#DFDFDF" stroke-width="2" stroke-linecap="round" stroke-miterlimit="10" x1="440.318" y1="153.417" x2="438.997" y2="150.417"/>
				
					<line fill="none" stroke="#DFDFDF" stroke-width="2" stroke-linecap="round" stroke-miterlimit="10" x1="465.598" y1="210.907" x2="464.277" y2="207.907"/>
				<polygon fill="#AAD5F7" stroke="#DFDFDF" stroke-width="2" stroke-linecap="round" stroke-miterlimit="10" points="
					463.418,213.907 427.147,263.837 422.788,263.837 410.707,247.207 411.527,247.207 411.527,241.207 410.707,241.207 
					436.818,205.267 441.998,205.267 441.998,203.237 462.598,209.927 462.598,213.907 				"/>
				
					<line fill="none" stroke="#DFDFDF" stroke-width="2" stroke-linecap="round" stroke-miterlimit="10" x1="465.598" y1="210.907" x2="463.418" y2="213.907"/>
				<polyline fill="none" stroke="#DFDFDF" stroke-width="2" stroke-linecap="round" stroke-miterlimit="10" points="
					427.148,263.837 424.978,266.817 424.967,266.837 				"/>
				<polygon fill="#AAD5F7" stroke="#DFDFDF" stroke-width="2" stroke-linecap="round" stroke-miterlimit="10" points="
					422.788,263.837 421.967,263.837 421.967,267.807 362.217,287.227 362.217,285.197 359.217,285.197 359.217,263.237 
					362.217,263.237 362.217,259.257 405.527,245.187 405.527,247.207 410.707,247.207 				"/>
				<polyline fill="none" stroke="#DFDFDF" stroke-width="2" stroke-linecap="round" stroke-miterlimit="10" points="
					424.967,266.837 424.958,266.837 424.948,266.847 421.967,267.807 				"/>
				
					<line fill="none" stroke="#DFDFDF" stroke-width="2" stroke-linecap="round" stroke-miterlimit="10" x1="362.217" y1="287.227" x2="359.217" y2="288.197"/>
				<polygon fill="#AAD5F7" stroke="#DFDFDF" stroke-width="2" stroke-linecap="round" stroke-miterlimit="10" points="
					359.217,263.237 359.217,285.197 356.217,285.197 356.217,285.517 312.908,246.887 312.908,241.207 312.087,241.207 
					324.158,224.587 328.887,224.587 356.668,257.237 356.217,257.237 356.217,263.237 				"/>
				
					<line fill="none" stroke="#DFDFDF" stroke-width="2" stroke-linecap="round" stroke-miterlimit="10" x1="359.217" y1="288.197" x2="356.217" y2="285.517"/>
				<polyline fill="none" stroke="#DFDFDF" stroke-width="2" stroke-linecap="round" stroke-miterlimit="10" points="
					312.908,246.887 309.938,244.237 309.908,244.207 				"/>
				<polygon fill="#AAD5F7" stroke="#DFDFDF" stroke-width="2" stroke-linecap="round" stroke-miterlimit="10" points="
					324.158,224.587 312.087,241.207 306.908,241.207 306.908,242.967 242.538,216.467 242.538,214.247 252.837,210.907 
					263.128,207.557 263.128,209.587 269.128,209.587 269.128,207.337 323.337,220.837 323.337,224.587 				"/>
				<polyline fill="none" stroke="#DFDFDF" stroke-width="2" stroke-linecap="round" stroke-miterlimit="10" points="
					309.908,244.207 309.888,244.197 306.908,242.967 				"/>
				
					<line fill="none" stroke="#DFDFDF" stroke-width="2" stroke-linecap="round" stroke-miterlimit="10" x1="242.538" y1="216.467" x2="239.538" y2="215.227"/>
				<polygon fill="#AAD5F7" stroke="#DFDFDF" stroke-width="2" stroke-linecap="round" stroke-miterlimit="10" points="
					278.717,153.417 266.837,203.587 263.128,203.587 263.128,207.557 252.837,210.907 242.538,214.247 242.538,212.227 
					240.077,212.227 252.298,144.777 255.837,144.777 255.837,142.757 276.428,149.437 276.428,153.417 				"/>
				
					<line fill="none" stroke="#DFDFDF" stroke-width="2" stroke-linecap="round" stroke-miterlimit="10" x1="240.078" y1="212.227" x2="239.538" y2="215.227"/>
				
					<line fill="none" stroke="#DFDFDF" stroke-width="2" stroke-linecap="round" stroke-miterlimit="10" x1="252.838" y1="141.777" x2="252.298" y2="144.777"/>
				<polygon fill="#AAD5F7" stroke="#DFDFDF" stroke-width="2" stroke-linecap="round" stroke-miterlimit="10" points="
					315.947,116.787 315.128,116.787 315.128,122.157 282.428,148.047 282.428,147.417 276.428,147.417 276.428,149.437 
					255.837,142.757 255.837,139.037 298.688,99.897 298.688,100.157 303.858,100.157 309.908,108.477 				"/>
				
					<line fill="none" stroke="#DFDFDF" stroke-width="2" stroke-linecap="round" stroke-miterlimit="10" x1="255.838" y1="139.037" x2="252.838" y2="141.777"/>
				
					<line fill="none" stroke="#DFDFDF" stroke-width="2" stroke-linecap="round" stroke-miterlimit="10" x1="301.688" y1="97.157" x2="298.688" y2="99.897"/>
				<polygon fill="#AAD5F7" stroke="#DFDFDF" stroke-width="2" stroke-linecap="round" stroke-miterlimit="10" points="
					359.217,95.447 359.217,117.417 356.217,117.417 356.217,120.367 321.128,119.837 321.128,116.787 315.947,116.787 
					309.908,108.477 303.858,100.157 304.688,100.157 304.688,96.907 356.217,92.697 356.217,95.447 				"/>
				
					<line fill="none" stroke="#DFDFDF" stroke-width="2" stroke-linecap="round" stroke-miterlimit="10" x1="304.688" y1="96.907" x2="301.688" y2="97.157"/>
				
					<line fill="none" stroke="#DFDFDF" stroke-width="2" stroke-linecap="round" stroke-miterlimit="10" x1="359.217" y1="92.447" x2="356.217" y2="92.697"/>
			</g>
		</g>
		<g>
			<g>
				
					<line fill="none" stroke="#000000" stroke-width="2" stroke-linecap="round" stroke-miterlimit="10" x1="362.217" y1="119.207" x2="359.217" y2="120.417"/>
				
					<line fill="none" stroke="#000000" stroke-width="2" stroke-linecap="round" stroke-miterlimit="10" x1="416.747" y1="97.157" x2="413.747" y2="98.367"/>
				
					<line fill="none" stroke="#000000" stroke-width="2" stroke-linecap="round" stroke-miterlimit="10" x1="416.747" y1="97.157" x2="415.948" y2="100.157"/>
				
					<line fill="none" stroke="#000000" stroke-width="2" stroke-linecap="round" stroke-miterlimit="10" x1="399.908" y1="160.377" x2="399.108" y2="163.377"/>
				
					<line fill="none" stroke="#000000" stroke-width="2" stroke-linecap="round" stroke-miterlimit="10" x1="402.108" y1="166.297" x2="399.108" y2="163.377"/>
				<polyline fill="none" stroke="#000000" stroke-width="2" stroke-linecap="round" stroke-miterlimit="10" points="
					435.997,199.347 438.988,202.257 438.997,202.267 				"/>
				
					<line fill="none" stroke="#000000" stroke-width="2" stroke-linecap="round" stroke-miterlimit="10" x1="438.997" y1="202.267" x2="436.818" y2="205.267"/>
				
					<line fill="none" stroke="#000000" stroke-width="2" stroke-linecap="round" stroke-miterlimit="10" x1="410.708" y1="241.207" x2="408.527" y2="244.207"/>
				
					<line fill="none" stroke="#000000" stroke-width="2" stroke-linecap="round" stroke-miterlimit="10" x1="408.527" y1="244.207" x2="405.527" y2="245.187"/>
				
					<line fill="none" stroke="#000000" stroke-width="2" stroke-linecap="round" stroke-miterlimit="10" x1="362.217" y1="259.257" x2="359.217" y2="260.237"/>
				
					<line fill="none" stroke="#000000" stroke-width="2" stroke-linecap="round" stroke-miterlimit="10" x1="359.217" y1="260.237" x2="356.668" y2="257.237"/>
				
					<line fill="none" stroke="#000000" stroke-width="2" stroke-linecap="round" stroke-miterlimit="10" x1="328.888" y1="224.587" x2="326.337" y2="221.587"/>
				
					<line fill="none" stroke="#000000" stroke-width="2" stroke-linecap="round" stroke-miterlimit="10" x1="326.337" y1="221.587" x2="323.337" y2="220.837"/>
				
					<line fill="none" stroke="#000000" stroke-width="2" stroke-linecap="round" stroke-miterlimit="10" x1="269.128" y1="207.337" x2="266.128" y2="206.587"/>
				
					<line fill="none" stroke="#000000" stroke-width="2" stroke-linecap="round" stroke-miterlimit="10" x1="266.837" y1="203.587" x2="266.128" y2="206.587"/>
				<polyline fill="none" stroke="#000000" stroke-width="2" stroke-linecap="round" stroke-miterlimit="10" points="
					278.717,153.417 279.428,150.437 279.428,150.417 				"/>
				
					<line fill="none" stroke="#000000" stroke-width="2" stroke-linecap="round" stroke-miterlimit="10" x1="282.428" y1="148.047" x2="279.428" y2="150.417"/>
				
					<line fill="none" stroke="#000000" stroke-width="2" stroke-linecap="round" stroke-miterlimit="10" x1="318.128" y1="119.787" x2="315.128" y2="122.157"/>
				
					<line fill="none" stroke="#000000" stroke-width="2" stroke-linecap="round" stroke-miterlimit="10" x1="321.128" y1="119.837" x2="318.128" y2="119.787"/>
				
					<line fill="none" stroke="#000000" stroke-width="2" stroke-linecap="round" stroke-miterlimit="10" x1="359.217" y1="120.417" x2="356.217" y2="120.367"/>
			</g>
		</g>
	</g>
	<g>
		<g>
			<g>
				
					<rect x="356.217" y="89.447" fill="#DFDFDF" stroke="#000000" stroke-width="0.5" stroke-miterlimit="10" width="6" height="6"/>
				
					<rect x="421.967" y="82.847" fill="#DFDFDF" stroke="#000000" stroke-width="0.5" stroke-miterlimit="10" width="6" height="6"/>
				
					<rect x="435.998" y="147.417" fill="#DFDFDF" stroke="#000000" stroke-width="0.5" stroke-miterlimit="10" width="6" height="6"/>
				
					<rect x="462.598" y="207.907" fill="#DFDFDF" stroke="#000000" stroke-width="0.5" stroke-miterlimit="10" width="6" height="6"/>
				
					<rect x="421.967" y="263.837" fill="#DFDFDF" stroke="#000000" stroke-width="0.5" stroke-miterlimit="10" width="6" height="6"/>
				
					<rect x="356.217" y="285.197" fill="#DFDFDF" stroke="#000000" stroke-width="0.5" stroke-miterlimit="10" width="6" height="6"/>
				
					<rect x="306.908" y="241.207" fill="#DFDFDF" stroke="#000000" stroke-width="0.5" stroke-miterlimit="10" width="6" height="6"/>
				
					<rect x="236.538" y="212.227" fill="#DFDFDF" stroke="#000000" stroke-width="0.5" stroke-miterlimit="10" width="6" height="6"/>
				
					<rect x="249.837" y="138.777" fill="#DFDFDF" stroke="#000000" stroke-width="0.5" stroke-miterlimit="10" width="6" height="6"/>
				
					<rect x="298.688" y="94.157" fill="#DFDFDF" stroke="#000000" stroke-width="0.5" stroke-miterlimit="10" width="6" height="6"/>
			</g>
		</g>
		<g>
			<g>
				<rect x="356.217" y="117.417" stroke="#000000" stroke-width="0.5" stroke-miterlimit="10" width="6" height="6"/>
				<rect x="413.748" y="94.157" stroke="#000000" stroke-width="0.5" stroke-miterlimit="10" width="6" height="6"/>
				<rect x="396.108" y="160.377" stroke="#000000" stroke-width="0.5" stroke-miterlimit="10" width="6" height="6"/>
				<rect x="435.998" y="199.267" stroke="#000000" stroke-width="0.5" stroke-miterlimit="10" width="6" height="6"/>
				<rect x="405.527" y="241.207" stroke="#000000" stroke-width="0.5" stroke-miterlimit="10" width="6" height="6"/>
				<rect x="356.217" y="257.237" stroke="#000000" stroke-width="0.5" stroke-miterlimit="10" width="6" height="6"/>
				<rect x="323.337" y="218.587" stroke="#000000" stroke-width="0.5" stroke-miterlimit="10" width="6" height="6"/>
				<rect x="263.128" y="203.587" stroke="#000000" stroke-width="0.5" stroke-miterlimit="10" width="6" height="6"/>
				<rect x="276.428" y="147.417" stroke="#000000" stroke-width="0.5" stroke-miterlimit="10" width="6" height="6"/>
				<rect x="315.128" y="116.787" stroke="#000000" stroke-width="0.5" stroke-miterlimit="10" width="6" height="6"/>
			</g>
		</g>
	</g>
	<g>
		<text transform="matrix(1 0 0 1 190.2665 43.7716)" font-family="'ArialMT'" font-size="16">Autonomie</text>
		<text transform="matrix(1 0 0 1 -1.220703e-04 135.7037)" font-family="'ArialMT'" font-size="16">V</text>
		<text transform="matrix(1 0 0 1 10.3829 135.7037)" font-family="'ArialMT'" font-size="16">ision globale (de son action)</text>
		<text transform="matrix(1 0 0 1 42.4218 232.919)" font-family="'ArialMT'" font-size="16">Connaissances fiscales</text>
		<text transform="matrix(1 0 0 1 91.5321 319.5382)" font-family="'ArialMT'" font-size="16">Ouverture technologique</text>
		<text transform="matrix(1 0 0 1 275.1805 349.5792)" font-family="'ArialMT'" font-size="16">Rigueur avec soi même</text>
		<text transform="matrix(1 0 0 1 451.6727 319.5382)" font-family="'ArialMT'" font-size="16">Confiance en soi</text>
		<text transform="matrix(1 0 0 1 508.8143 232.919)" font-family="'ArialMT'" font-size="16">Adoption de fonctionnalités</text>
		<text transform="matrix(1 0 0 1 508.8143 135.7037)" font-family="'ArialMT'" font-size="16">Sécurité logiciel</text>
		<text transform="matrix(1 0 0 1 451.6727 43.7716)" font-family="'ArialMT'" font-size="16">Connaissances logiciel</text>
		<text transform="matrix(1 0 0 1 308.9696 13.7306)" font-family="'ArialMT'" font-size="16">Contact Client</text>
	</g>
</g>
<g>
	<g>
		<circle fill="none" stroke="#000000" stroke-miterlimit="10" cx="191.052" cy="664.993" r="85.312"/>
		<g>
			<g>
				<line fill="none" stroke="#000000" stroke-miterlimit="10" x1="191.052" y1="579.681" x2="191.052" y2="583.946"/>
			</g>
		</g>
	</g>
	<g>
		<g>
			<text transform="matrix(1 0 0 1 198.6089 650.6815)" font-family="'ArialMT'" font-size="7.3359">0,2</text>
			<text transform="matrix(1 0 0 1 198.6089 633.619)" font-family="'ArialMT'" font-size="7.3359">0,4</text>
			<text transform="matrix(1 0 0 1 198.6089 616.5565)" font-family="'ArialMT'" font-size="7.3359">0,6</text>
			<text transform="matrix(1 0 0 1 198.6089 599.494)" font-family="'ArialMT'" font-size="7.3359">0,8</text>
			<text transform="matrix(1 0 0 1 198.6089 582.4315)" font-family="'ArialMT'" font-size="7.3359">1,0</text>
		</g>
		<line fill="none" stroke="#000000" stroke-miterlimit="10" x1="191.052" y1="664.993" x2="191.052" y2="579.681"/>
		<g>
			<g>
				<line fill="none" stroke="#000000" stroke-miterlimit="10" x1="188.919" y1="647.931" x2="193.185" y2="647.931"/>
				<line fill="none" stroke="#000000" stroke-miterlimit="10" x1="188.919" y1="630.868" x2="193.185" y2="630.868"/>
				<line fill="none" stroke="#000000" stroke-miterlimit="10" x1="188.919" y1="613.806" x2="193.185" y2="613.806"/>
				<line fill="none" stroke="#000000" stroke-miterlimit="10" x1="188.919" y1="596.743" x2="193.185" y2="596.743"/>
			</g>
		</g>
	</g>
	<g>
		<g>
			<g>
				
					<line fill="none" stroke="#000000" stroke-width="2" stroke-linecap="round" stroke-miterlimit="10" x1="191.052" y1="579.681" x2="191.052" y2="579.681"/>
			</g>
		</g>
	</g>
	<g>
		<g>
			<g>
				<rect x="188.052" y="576.681" stroke="#000000" stroke-width="0.5" stroke-miterlimit="10" width="6" height="6"/>
			</g>
		</g>
	</g>
</g>
</svg>
